<svg xmlns="http://www.w3.org/2000/svg" width="24" height="24" viewBox="0 0 24 24">
  <path fill="#AEB1B3" fill-rule="evenodd" d="M14.4104207,3.63477867 C14.4699775,3.69445752 14.5,3.77073417 14.5,3.86348658 L14.5,4.49993898 C14.5,4.59269139 14.4699775,4.66896804 14.4104207,4.72852485 C14.3508639,4.78820371 14.2745872,4.81798211 14.1818348,4.81798211 L13.2272173,4.81798211 L13.2272173,14.2443119 C13.2272173,14.7943581 13.0716129,15.2699583 12.760038,15.6711125 C12.4484631,16.0720226 12.0740363,16.2725387 11.6363914,16.2725387 L3.36360863,16.2725387 C2.92608574,16.2725387 2.55153687,16.0787349 2.23996199,15.6907614 C1.92838712,15.3031539 1.7726607,14.834144 1.7726607,14.2838538 L1.7726607,4.81798211 L0.818165176,4.81798211 C0.725412766,4.81798211 0.649136112,4.78820371 0.589457259,4.72852485 C0.529778405,4.66896804 0.5,4.59269139 0.5,4.49993898 L0.5,3.86348658 C0.5,3.77073417 0.529900448,3.69445752 0.589457259,3.63477867 C0.649136112,3.57522186 0.725290723,3.54532141 0.818165176,3.54532141 L3.89058877,3.54532141 L4.58659797,1.88493122 C4.68606273,1.6396255 4.86497725,1.43081054 5.12358561,1.25848632 C5.38207194,1.08616211 5.64397545,1 5.90905208,1 L9.09082588,1 C9.35602455,1 9.61792806,1.08616211 9.87653643,1.25848632 C10.1350228,1.43081054 10.3139373,1.6396255 10.41328,1.88493122 L11.1092892,3.54532141 L14.1818348,3.54532141 C14.2745872,3.54532141 14.3508639,3.57522186 14.4104207,3.63477867 Z M5.75991596,2.38188887 L5.27272173,3.54519937 L9.72727827,3.54519937 L9.24996949,2.38188887 C9.20359328,2.32233206 9.14720958,2.28584131 9.08094043,2.27253866 L5.92894503,2.27253866 C5.86267587,2.28571927 5.80629217,2.32221002 5.75991596,2.38188887 Z M11.9545565,14.2441899 L11.9545565,4.81798211 L3.04544345,4.81798211 L3.04544345,14.2441899 C3.04544345,14.3899088 3.06863155,14.5242778 3.11500776,14.6468086 C3.16138396,14.7694614 3.20946877,14.8589187 3.25926217,14.9153024 C3.30905556,14.9716861 3.34371568,14.9997559 3.36360863,14.9997559 L11.6363914,14.9997559 C11.6564064,14.9997559 11.6910665,14.9716861 11.7407378,14.9153024 C11.7904092,14.8589187 11.838494,14.7694614 11.8849922,14.6468086 C11.9314905,14.5242778 11.9545565,14.3900309 11.9545565,14.2441899 Z M4.63639137,13.0907649 C4.54351692,13.0907649 4.46736231,13.0609865 4.40768346,13.0014296 C4.3480046,12.9416287 4.3182262,12.8655962 4.3182262,12.7725997 L4.3182262,7.04526039 C4.3182262,6.95250798 4.34812665,6.87623132 4.40768346,6.81655247 C4.46736231,6.75699566 4.54351692,6.72721725 4.63639137,6.72721725 L5.27272173,6.72721725 C5.36559618,6.72721725 5.44175079,6.75699566 5.50142964,6.81655247 C5.56098645,6.87623132 5.5908869,6.95250798 5.5908869,7.04526039 L5.5908869,12.7725997 C5.5908869,12.8655962 5.56098645,12.9416287 5.50142964,13.0014296 C5.44187283,13.0609865 5.36559618,13.0907649 5.27272173,13.0907649 L4.63639137,13.0907649 Z M7.18183482,13.0907649 C7.08908241,13.0907649 7.01280576,13.0609865 6.95312691,13.0014296 C6.89344805,12.9416287 6.86366965,12.8655962 6.86366965,12.7725997 L6.86366965,7.04526039 C6.86366965,6.95250798 6.89344805,6.87623132 6.95312691,6.81655247 C7.01280576,6.75699566 7.08908241,6.72721725 7.18183482,6.72721725 L7.81816518,6.72721725 C7.91103963,6.72721725 7.98731628,6.75699566 8.04675105,6.81655247 C8.10655195,6.87623132 8.13620831,6.95250798 8.13620831,7.04526039 L8.13620831,12.7725997 C8.13620831,12.8655962 8.10655195,12.9416287 8.04675105,13.0014296 C7.98731628,13.0609865 7.91103963,13.0907649 7.81816518,13.0907649 L7.18183482,13.0907649 Z M9.72727827,13.0907649 C9.63440382,13.0907649 9.55824921,13.0609865 9.49857036,13.0014296 C9.4388915,12.9416287 9.4091131,12.8655962 9.4091131,12.7725997 L9.4091131,7.04526039 C9.4091131,6.95250798 9.4388915,6.87623132 9.49857036,6.81655247 C9.55824921,6.75699566 9.63440382,6.72721725 9.72727827,6.72721725 L10.3636086,6.72721725 C10.4564831,6.72721725 10.5327597,6.75699566 10.5923165,6.81655247 C10.6518734,6.87623132 10.6816518,6.95250798 10.6816518,7.04526039 L10.6816518,12.7725997 C10.6816518,12.8655962 10.6518734,12.9416287 10.5923165,13.0014296 C10.5327597,13.0609865 10.4564831,13.0907649 10.3636086,13.0907649 L9.72727827,13.0907649 Z" transform="translate(4.5 3)"/>
</svg>
