<svg xmlns="http://www.w3.org/2000/svg" width="122" height="24" viewBox="0 0 122 24">
  <g fill="none" fill-rule="evenodd" transform="translate(1 1)">
    <rect width="120" height="22" stroke="#CACACA" rx="2"/>
    <text fill="#202020" font-family="HelveticaNeue-Medium, Helvetica Neue" font-size="11" font-weight="400" letter-spacing="-.05">
      <tspan x="22" y="15">Export to Demisto</tspan>
    </text>
    <g transform="translate(5 5)">
      <path fill="#37383D" d="M1.95613333,0 C1.95613333,0 0,0 0,1.95613333 L0,10.0438667 C0,10.0438667 0,12 1.95613333,12 L10.044,12 C10.044,12 12,12 12,10.0438667 L12,1.95613333 C12,1.95613333 12,0 10.044,0 L1.95613333,0 Z"/>
      <polygon fill="#A3E000" points="2.667 10.003 4.349 10.003 4.349 8.32 2.667 8.32"/>
      <path fill="#EEEFEE" d="M4.37148727,2.65566906 L5.15831715,3.70509076 L6.99443366,3.70509076 C7.21163923,3.70509076 7.38778106,3.88096243 7.38778106,4.09843816 L7.38778106,7.901832 C7.38778106,8.11890249 7.21163923,8.29504432 6.99443366,8.29504432 L4.89613058,8.29504432 L4.89613058,10 L7.38778106,10 C8.32954552,10 9.09287182,9.23680878 9.09287182,8.29504432 L9.09287182,3.83598143 C9.09287182,2.82627269 8.26659913,2 7.25662023,2 L2.66666667,2 L2.66666667,7.77040101 L4.37148727,7.77040101 L4.37148727,2.65566906 Z"/>
    </g>
  </g>
</svg>
